# xmcd
# 
# Track frame offsets:
#     150
#     24330
#     42297
# 
# Disc length: 791
# 
# Revision: 5
# Processed by: cddbd v1.5.2PL0 Copyright (c) Steve Scherf et al.
# Submitted via: fre:ac v1.0.17
# 
DISCID=19031503
DTITLE=DOUBLE - Rollin' On (11th Single)
DYEAR=2003
DGENRE=J-R&B
TTITLE0=Rollin' On
TTITLE1=Rollin' On remix feat. AI
TTITLE2=Rollin' On (Radio Edit)
EXTD=
EXTT0=
EXTT1=
EXTT2=
PLAYORDER=
